<?xml version="1.0" encoding="utf-8"?>
<!-- Generator: Adobe Illustrator 19.1.0, SVG Export Plug-In . SVG Version: 6.00 Build 0)  -->
<svg version="1.1" id="Layer_1" xmlns="http://www.w3.org/2000/svg" xmlns:xlink="http://www.w3.org/1999/xlink" x="0px" y="0px"
	 width="1000px" height="1000px" viewBox="0 0 1000 1000" style="enable-background:new 0 0 1000 1000;" xml:space="preserve">
<style type="text/css">
	.st0{fill:#9A8C98;}
	.st1{fill:#C9ADA7;}
	.st2{fill:#F2E9E4;}
	.st3{fill:#22223B;}
</style>
<g>
	<path class="st0" d="M212.1,312.1c-15.3,31.2-24.1,66.3-24.1,103.2v69.2c0,9.7,0.8,19.2,1.9,28.6c30.4-17.2,63.9-29.2,96.4-34.8
		c66.1-11.3,136.5-11.7,204.2-11.4c68.1,0.3,139.6,0.9,205.7,14.1c25.8,5.2,52,14.6,76.5,27.6c0.8-7.9,1.2-16,1.2-24.1v-69.2
		c0-35.6-8.1-69.3-22.3-99.7c51.1-31.7,126.9-95.5,62.5-168c-82.9-93.2-157.8-11.9-195.5,45.8c-25.3-9.3-52.5-14.5-80.9-14.5H424.4
		c-26.2,0-51.4,4.5-75,12.4C311.3,133.9,237,55.5,155.2,147.6C93.1,217.5,161.4,279.4,212.1,312.1z"/>
	<path id="g3517_3_" d="M634,388c1.5,4.1,2.3,8.6,2.3,13.2c0,21.4-17.4,38.8-38.8,38.8c-21.4,0-38.8-17.4-38.8-38.8
		c0-21.4,17.4-38.8,38.8-38.8c9.3,0,17.8,3.3,24.4,8.7l-19.6,26.8L634,388z M376,397.9l19.6-26.8c-6.7-5.4-15.2-8.7-24.4-8.7
		c-21.4,0-38.8,17.4-38.8,38.8c0,21.4,17.4,38.8,38.8,38.8c21.4,0,38.8-17.4,38.8-38.8c0-4.6-0.8-9.1-2.3-13.2L376,397.9z"/>
	<path class="st1" d="M643.4,933.9c-63.9,14.6-130,18.7-195.5,14.9C319.8,941.2,165.5,905,101.6,782c-10.4-20.1-18.5-41.1-23.8-63
		c-31.4-128.3,94.1-227.6,208.6-247.1c66.1-11.3,136.4-11.7,204.2-11.4c68.1,0.3,139.5,0.9,205.7,14.1
		C805.7,496.4,921,594.8,891.9,718.9C864.4,836.8,754.6,908.6,643.4,933.9z"/>
	<path class="st2" d="M716.8,805.5l-39.4,16.6c-11.9,5-25.5-0.6-30.5-12.4l-21.1-50l82.4-34.7l21.1,50
		C734.2,786.8,728.6,800.5,716.8,805.5z M252.6,805.5l39.4,16.6c11.9,5,25.5-0.6,30.5-12.4l21.1-50l-82.4-34.7l-21.1,50
		C235.1,786.8,240.7,800.5,252.6,805.5z"/>
	<path d="M645.2,766.2c52.9-21.5,100.3-53,141-93.7l-16.8-16.8c-156.9,156.9-412.3,156.9-569.2,0l-16.8,16.8
		c40.7,40.7,88.2,72.2,141,93.7c51.1,20.7,105,31.2,160.4,31.2S594.1,787,645.2,766.2z"/>
	<path class="st3" d="M363.3,566c0,14.9-22.6,27-50.4,27c-27.8,0-50.4-12.1-50.4-27c0-14.9,22.6-27,50.4-27
		C340.8,539,363.3,551.1,363.3,566z M656.7,539c-27.8,0-50.4,12.1-50.4,27c0,14.9,22.6,27,50.4,27s50.4-12.1,50.4-27
		C707.1,551.1,684.5,539,656.7,539z"/>
</g>
</svg>
